<svg xmlns="http://www.w3.org/2000/svg" width="1200" height="800" viewBox="0 0 1200 800">
  <defs>
    <linearGradient id="bg" x1="0" y1="0" x2="1" y2="1">
      <stop offset="0%" stop-color="#f9f5df"/>
      <stop offset="100%" stop-color="#d8ecb3"/>
    </linearGradient>
    <linearGradient id="jar" x1="0" y1="0" x2="0" y2="1">
      <stop offset="0%" stop-color="#f6f1dd"/>
      <stop offset="100%" stop-color="#d7c4a7"/>
    </linearGradient>
  </defs>
  <rect width="1200" height="800" fill="url(#bg)"/>
  <circle cx="150" cy="130" r="90" fill="#acd07e" opacity="0.35"/>
  <circle cx="1010" cy="120" r="100" fill="#acd07e" opacity="0.35"/>
  <rect x="0" y="575" width="1200" height="225" fill="#f8f4ea"/>
  <ellipse cx="380" cy="500" rx="150" ry="28" fill="#cfc4a4"/>
  <ellipse cx="600" cy="500" rx="150" ry="28" fill="#cfc4a4"/>
  <ellipse cx="825" cy="500" rx="150" ry="28" fill="#cfc4a4"/>
  <g>
    <rect x="270" y="190" width="220" height="290" rx="40" fill="url(#jar)" stroke="#c6b593" stroke-width="8"/>
    <rect x="315" y="140" width="130" height="65" rx="20" fill="#9f6b39"/>
    <rect x="305" y="250" width="150" height="180" rx="24" fill="#d8a21b"/>
    <circle cx="342" cy="318" r="28" fill="#f7d95b"/>
    <circle cx="390" cy="352" r="30" fill="#f4c94a"/>
    <circle cx="418" cy="296" r="24" fill="#f7d95b"/>
  </g>
  <g>
    <rect x="490" y="190" width="220" height="290" rx="40" fill="url(#jar)" stroke="#c6b593" stroke-width="8"/>
    <rect x="535" y="140" width="130" height="65" rx="20" fill="#8f5d34"/>
    <rect x="525" y="245" width="150" height="185" rx="24" fill="#a83322"/>
    <path d="M548 310 C585 250 620 255 648 320 C670 372 620 392 592 360 C570 336 552 348 548 310" fill="#f0aa2c"/>
    <path d="M610 288 C640 246 660 246 678 286 C694 322 654 348 626 328 C614 318 603 310 610 288" fill="#7da73d"/>
  </g>
  <g>
    <rect x="715" y="190" width="220" height="290" rx="40" fill="url(#jar)" stroke="#c6b593" stroke-width="8"/>
    <rect x="760" y="140" width="130" height="65" rx="20" fill="#8f5d34"/>
    <rect x="750" y="250" width="150" height="180" rx="24" fill="#dbb02f"/>
    <ellipse cx="825" cy="340" rx="54" ry="54" fill="#d27e1c"/>
    <g fill="#8c5a17">
      <circle cx="787" cy="340" r="6"/>
      <circle cx="815" cy="300" r="6"/>
      <circle cx="847" cy="320" r="6"/>
      <circle cx="840" cy="360" r="6"/>
      <circle cx="808" cy="374" r="6"/>
      <circle cx="866" cy="340" r="6"/>
    </g>
  </g>
</svg>
