<svg xmlns="http://www.w3.org/2000/svg" width="1200" height="800" viewBox="0 0 1200 800">
  <defs>
    <linearGradient id="bg" x1="0" y1="0" x2="1" y2="1">
      <stop offset="0%" stop-color="#f8f1dc"/>
      <stop offset="100%" stop-color="#dbcf8d"/>
    </linearGradient>
    <linearGradient id="block" x1="0" y1="0" x2="1" y2="1">
      <stop offset="0%" stop-color="#b86a1f"/>
      <stop offset="100%" stop-color="#7f4311"/>
    </linearGradient>
  </defs>
  <rect width="1200" height="800" fill="url(#bg)"/>
  <rect x="0" y="590" width="1200" height="210" fill="#f7f1e6"/>
  <ellipse cx="610" cy="535" rx="310" ry="48" fill="#cfc39f"/>
  <g fill="url(#block)">
    <rect x="340" y="365" width="150" height="110" rx="18" transform="rotate(-10 415 420)"/>
    <rect x="495" y="330" width="180" height="130" rx="20" transform="rotate(8 585 395)"/>
    <rect x="700" y="360" width="160" height="118" rx="18" transform="rotate(-6 780 419)"/>
  </g>
  <g stroke="#7fb24d" stroke-width="20" stroke-linecap="round">
    <path d="M225 545 C245 380 252 260 260 130"/>
    <path d="M285 550 C305 385 315 255 330 115"/>
    <path d="M950 550 C930 390 918 260 908 120"/>
    <path d="M1010 545 C990 395 982 268 980 140"/>
  </g>
  <g stroke="#9ed26a" stroke-width="10" stroke-linecap="round">
    <path d="M260 220 C305 185 335 175 385 170"/>
    <path d="M326 164 C372 134 402 126 446 126"/>
    <path d="M908 200 C855 175 815 166 770 165"/>
    <path d="M974 252 C926 225 885 214 835 210"/>
  </g>
</svg>
