<svg xmlns="http://www.w3.org/2000/svg" width="1200" height="800" viewBox="0 0 1200 800">
  <defs>
    <linearGradient id="bg" x1="0" y1="0" x2="1" y2="1">
      <stop offset="0%" stop-color="#fff5db"/>
      <stop offset="100%" stop-color="#ecd37d"/>
    </linearGradient>
    <linearGradient id="bowl" x1="0" y1="0" x2="0" y2="1">
      <stop offset="0%" stop-color="#865435"/>
      <stop offset="100%" stop-color="#5c341f"/>
    </linearGradient>
  </defs>
  <rect width="1200" height="800" fill="url(#bg)"/>
  <circle cx="180" cy="140" r="100" fill="#fff8e7" opacity="0.5"/>
  <rect x="0" y="590" width="1200" height="210" fill="#fbf5e9"/>
  <ellipse cx="590" cy="530" rx="270" ry="46" fill="#d4c8ac"/>
  <ellipse cx="590" cy="455" rx="220" ry="92" fill="url(#bowl)"/>
  <ellipse cx="590" cy="438" rx="190" ry="62" fill="#f4b91b"/>
  <path d="M430 255 C470 215 512 200 565 196" stroke="#b16a1f" stroke-width="16" stroke-linecap="round"/>
  <path d="M470 235 C505 195 548 178 602 176" stroke="#c47a21" stroke-width="16" stroke-linecap="round"/>
  <path d="M736 275 L900 340 L880 386 L706 320 Z" fill="#9a6031"/>
  <path d="M722 281 L860 336 L845 368 L706 314 Z" fill="#f2b81f"/>
  <g fill="#d88621">
    <ellipse cx="280" cy="420" rx="50" ry="24" transform="rotate(-25 280 420)"/>
    <ellipse cx="322" cy="388" rx="56" ry="24" transform="rotate(-15 322 388)"/>
    <ellipse cx="255" cy="470" rx="58" ry="24" transform="rotate(-18 255 470)"/>
  </g>
</svg>
